# voxel prop — generated by tools/voxel/generate_props.py
mtllib item.mtl
o item
v -0.575 0.125 -0.05
v -0.575 0.125 0.0
v -0.525 0.125 0.0
v -0.525 0.125 -0.05
v -0.575 0.075 -0.05
v -0.525 0.075 -0.05
v -0.525 0.075 0.0
v -0.575 0.075 0.0
v -0.525 0.025 -0.05
v -0.475 0.025 -0.05
v -0.475 0.025 0.0
v -0.525 0.025 0.0
v -0.475 0.075 -0.05
v -0.475 0.075 0.0
v -0.475 0.125 0.0
v -0.475 0.125 -0.05
v -0.525 0.175 -0.05
v -0.525 0.175 0.0
v -0.475 0.175 0.0
v -0.475 0.175 -0.05
v -0.425 0.125 0.0
v -0.425 0.125 -0.05
v -0.425 0.075 -0.05
v -0.425 0.075 0.0
v -0.175 0.025 -0.05
v -0.125 0.025 -0.05
v -0.125 0.025 0.0
v -0.175 0.025 0.0
v -0.175 0.075 0.0
v -0.175 0.075 -0.05
v -0.125 0.075 -0.05
v -0.125 0.025 0.05
v -0.175 0.025 0.05
v -0.175 0.075 0.05
v -0.125 0.075 0.05
v -0.175 0.125 0.0
v -0.175 0.125 -0.05
v -0.125 0.125 -0.05
v -0.175 0.125 0.05
v -0.125 0.125 0.05
v -0.175 0.175 -0.05
v -0.175 0.175 0.0
v -0.125 0.175 0.0
v -0.125 0.175 -0.05
v -0.175 0.175 0.05
v -0.125 0.175 0.05
v -0.125 -0.025 -0.05
v -0.075 -0.025 -0.05
v -0.075 -0.025 0.0
v -0.125 -0.025 0.0
v -0.075 0.025 -0.05
v -0.075 -0.025 0.05
v -0.125 -0.025 0.05
v -0.075 0.025 0.05
v -0.075 0.075 -0.05
v -0.075 0.075 0.05
v -0.075 0.125 -0.05
v -0.075 0.125 0.05
v -0.075 0.175 -0.05
v -0.075 0.175 0.05
v -0.125 0.225 -0.05
v -0.125 0.225 0.0
v -0.075 0.225 0.0
v -0.075 0.225 -0.05
v -0.125 0.225 0.05
v -0.075 0.225 0.05
v -0.075 -0.275 -0.05
v -0.025 -0.275 -0.05
v -0.025 -0.275 0.0
v -0.075 -0.275 0.0
v -0.075 -0.225 0.0
v -0.075 -0.225 -0.05
v -0.025 -0.225 -0.05
v -0.025 -0.275 0.05
v -0.075 -0.275 0.05
v -0.075 -0.225 0.05
v -0.025 -0.225 0.05
v -0.075 -0.175 0.0
v -0.075 -0.175 -0.05
v -0.025 -0.175 -0.05
v -0.075 -0.175 0.05
v -0.025 -0.175 0.05
v -0.075 -0.125 0.0
v -0.075 -0.125 -0.05
v -0.025 -0.125 -0.05
v -0.075 -0.125 0.05
v -0.025 -0.125 0.05
v -0.075 -0.075 0.0
v -0.075 -0.075 -0.05
v -0.025 -0.075 -0.05
v -0.075 -0.075 0.05
v -0.025 -0.075 0.05
v -0.025 -0.025 -0.05
v -0.025 -0.025 0.05
v -0.025 0.025 -0.05
v -0.025 0.025 0.05
v -0.025 0.075 -0.05
v -0.025 0.075 0.05
v -0.025 0.125 -0.05
v -0.025 0.125 0.05
v -0.025 0.175 -0.05
v -0.025 0.175 0.05
v -0.025 0.225 -0.05
v -0.025 0.225 0.05
v -0.075 0.275 -0.05
v -0.075 0.275 0.0
v -0.025 0.275 0.0
v -0.025 0.275 -0.05
v -0.075 0.275 0.05
v -0.025 0.275 0.05
v 0.025 -0.275 -0.05
v 0.025 -0.275 0.0
v 0.025 -0.225 -0.05
v 0.025 -0.225 0.0
v 0.025 -0.275 0.05
v 0.025 -0.225 0.05
v 0.025 -0.175 -0.05
v 0.025 -0.175 0.0
v 0.025 -0.175 0.05
v 0.025 -0.125 -0.05
v 0.025 -0.125 0.0
v 0.025 -0.125 0.05
v 0.025 -0.075 -0.05
v 0.025 -0.075 0.0
v 0.025 -0.075 0.05
v 0.025 -0.025 -0.05
v 0.025 -0.025 0.05
v 0.025 0.025 -0.05
v 0.025 0.025 0.05
v 0.025 0.075 -0.05
v 0.025 0.075 0.05
v 0.025 0.125 -0.05
v 0.025 0.125 0.05
v 0.025 0.175 -0.05
v 0.025 0.175 0.05
v 0.025 0.225 -0.05
v 0.025 0.225 0.05
v 0.025 0.275 0.0
v 0.025 0.275 -0.05
v 0.025 0.275 0.05
v 0.075 -0.075 -0.05
v 0.075 -0.075 0.0
v 0.075 -0.025 -0.05
v 0.075 -0.025 0.0
v 0.075 -0.075 0.05
v 0.075 -0.025 0.05
v 0.075 0.025 -0.05
v 0.075 0.025 0.05
v 0.075 0.075 -0.05
v 0.075 0.075 0.05
v 0.075 0.125 -0.05
v 0.075 0.125 0.05
v 0.075 0.175 -0.05
v 0.075 0.175 0.05
v 0.075 0.225 -0.05
v 0.075 0.225 0.05
v 0.075 0.275 0.0
v 0.075 0.275 -0.05
v 0.075 0.225 0.0
v 0.075 0.275 0.05
v 0.125 -0.025 -0.05
v 0.125 -0.025 0.0
v 0.125 0.025 -0.05
v 0.125 0.025 0.0
v 0.125 -0.025 0.05
v 0.125 0.025 0.05
v 0.125 0.075 -0.05
v 0.125 0.075 0.05
v 0.125 0.125 -0.05
v 0.125 0.125 0.05
v 0.125 0.175 -0.05
v 0.125 0.175 0.05
v 0.125 0.225 0.0
v 0.125 0.225 -0.05
v 0.125 0.175 0.0
v 0.125 0.225 0.05
v 0.175 0.025 -0.05
v 0.175 0.025 0.0
v 0.175 0.075 -0.05
v 0.175 0.075 0.0
v 0.175 0.025 0.05
v 0.175 0.075 0.05
v 0.175 0.125 -0.05
v 0.175 0.125 0.0
v 0.175 0.125 0.05
v 0.175 0.175 0.0
v 0.175 0.175 -0.05
v 0.175 0.175 0.05
v 0.425 0.125 -0.05
v 0.425 0.125 0.0
v 0.475 0.125 0.0
v 0.475 0.125 -0.05
v 0.425 0.075 -0.05
v 0.475 0.075 -0.05
v 0.475 0.075 0.0
v 0.425 0.075 0.0
v 0.475 0.025 -0.05
v 0.525 0.025 -0.05
v 0.525 0.025 0.0
v 0.475 0.025 0.0
v 0.525 0.075 -0.05
v 0.525 0.075 0.0
v 0.525 0.125 0.0
v 0.525 0.125 -0.05
v 0.475 0.175 -0.05
v 0.475 0.175 0.0
v 0.525 0.175 0.0
v 0.525 0.175 -0.05
v 0.575 0.125 0.0
v 0.575 0.125 -0.05
v 0.575 0.075 -0.05
v 0.575 0.075 0.0
vt 0.12500 0.12500
vt 0.37500 0.12500
vt 0.62500 0.12500
vt 0.87500 0.12500
vt 0.12500 0.37500
vt 0.37500 0.37500
vt 0.62500 0.37500
vt 0.87500 0.37500
vt 0.12500 0.62500
vt 0.37500 0.62500
vt 0.62500 0.62500
vt 0.87500 0.62500
vt 0.12500 0.87500
vn 1 0 0
vn -1 0 0
vn 0 1 0
vn 0 -1 0
vn 0 0 1
vn 0 0 -1
usemtl voxel
f 1/8/3 2/8/3 3/8/3 4/8/3
f 5/8/4 6/8/4 7/8/4 8/8/4
f 8/8/2 2/8/2 1/8/2 5/8/2
f 8/8/5 7/8/5 3/8/5 2/8/5
f 6/8/6 5/8/6 1/8/6 4/8/6
f 9/8/4 10/8/4 11/8/4 12/8/4
f 10/8/1 13/8/1 14/8/1 11/8/1
f 12/8/2 7/8/2 6/8/2 9/8/2
f 12/8/5 11/8/5 14/8/5 7/8/5
f 10/8/6 9/8/6 6/8/6 13/8/6
f 7/8/5 14/8/5 15/8/5 3/8/5
f 13/8/6 6/8/6 4/8/6 16/8/6
f 17/8/3 18/8/3 19/8/3 20/8/3
f 16/8/1 20/8/1 19/8/1 15/8/1
f 3/8/2 18/8/2 17/8/2 4/8/2
f 3/8/5 15/8/5 19/8/5 18/8/5
f 16/8/6 4/8/6 17/8/6 20/8/6
f 16/8/3 15/8/3 21/8/3 22/8/3
f 13/8/4 23/8/4 24/8/4 14/8/4
f 23/8/1 22/8/1 21/8/1 24/8/1
f 14/8/5 24/8/5 21/8/5 15/8/5
f 23/8/6 13/8/6 16/8/6 22/8/6
f 25/4/4 26/4/4 27/4/4 28/4/4
f 28/4/2 29/4/2 30/4/2 25/4/2
f 26/4/6 25/4/6 30/4/6 31/4/6
f 28/4/4 27/4/4 32/4/4 33/4/4
f 33/4/2 34/4/2 29/4/2 28/4/2
f 33/4/5 32/4/5 35/4/5 34/4/5
f 29/4/2 36/4/2 37/4/2 30/4/2
f 31/4/6 30/4/6 37/4/6 38/4/6
f 34/4/2 39/4/2 36/4/2 29/4/2
f 34/4/5 35/4/5 40/4/5 39/4/5
f 41/4/3 42/4/3 43/4/3 44/4/3
f 36/4/2 42/4/2 41/4/2 37/4/2
f 38/4/6 37/4/6 41/4/6 44/4/6
f 42/4/3 45/4/3 46/4/3 43/4/3
f 39/4/2 45/4/2 42/4/2 36/4/2
f 39/4/5 40/4/5 46/4/5 45/4/5
f 47/4/4 48/4/4 49/4/4 50/4/4
f 50/4/2 27/4/2 26/4/2 47/4/2
f 48/4/6 47/4/6 26/4/6 51/4/6
f 50/4/4 49/4/4 52/4/4 53/4/4
f 53/4/2 32/4/2 27/4/2 50/4/2
f 53/4/5 52/4/5 54/4/5 32/4/5
f 51/4/6 26/4/6 31/4/6 55/4/6
f 32/4/5 54/4/5 56/4/5 35/4/5
f 55/11/6 31/11/6 38/11/6 57/11/6
f 35/11/5 56/11/5 58/11/5 40/11/5
f 57/4/6 38/4/6 44/4/6 59/4/6
f 40/4/5 58/4/5 60/4/5 46/4/5
f 61/4/3 62/4/3 63/4/3 64/4/3
f 43/4/2 62/4/2 61/4/2 44/4/2
f 59/4/6 44/4/6 61/4/6 64/4/6
f 62/4/3 65/4/3 66/4/3 63/4/3
f 46/4/2 65/4/2 62/4/2 43/4/2
f 46/4/5 60/4/5 66/4/5 65/4/5
f 67/6/4 68/6/4 69/6/4 70/6/4
f 70/6/2 71/6/2 72/6/2 67/6/2
f 68/6/6 67/6/6 72/6/6 73/6/6
f 70/6/4 69/6/4 74/6/4 75/6/4
f 75/6/2 76/6/2 71/6/2 70/6/2
f 75/6/5 74/6/5 77/6/5 76/6/5
f 71/6/2 78/6/2 79/6/2 72/6/2
f 73/6/6 72/6/6 79/6/6 80/6/6
f 76/6/2 81/6/2 78/6/2 71/6/2
f 76/6/5 77/6/5 82/6/5 81/6/5
f 78/6/2 83/6/2 84/6/2 79/6/2
f 80/6/6 79/6/6 84/6/6 85/6/6
f 81/6/2 86/6/2 83/6/2 78/6/2
f 81/6/5 82/6/5 87/6/5 86/6/5
f 83/6/2 88/6/2 89/6/2 84/6/2
f 85/6/6 84/6/6 89/6/6 90/6/6
f 86/6/2 91/6/2 88/6/2 83/6/2
f 86/6/5 87/6/5 92/6/5 91/6/5
f 88/4/2 49/4/2 48/4/2 89/4/2
f 90/4/6 89/4/6 48/4/6 93/4/6
f 91/4/2 52/4/2 49/4/2 88/4/2
f 91/4/5 92/4/5 94/4/5 52/4/5
f 93/4/6 48/4/6 51/4/6 95/4/6
f 52/4/5 94/4/5 96/4/5 54/4/5
f 95/11/6 51/11/6 55/11/6 97/11/6
f 54/11/5 96/11/5 98/11/5 56/11/5
f 97/11/6 55/11/6 57/11/6 99/11/6
f 56/11/5 98/11/5 100/11/5 58/11/5
f 99/11/6 57/11/6 59/11/6 101/11/6
f 58/11/5 100/11/5 102/11/5 60/11/5
f 101/4/6 59/4/6 64/4/6 103/4/6
f 60/4/5 102/4/5 104/4/5 66/4/5
f 105/4/3 106/4/3 107/4/3 108/4/3
f 63/4/2 106/4/2 105/4/2 64/4/2
f 103/4/6 64/4/6 105/4/6 108/4/6
f 106/4/3 109/4/3 110/4/3 107/4/3
f 66/4/2 109/4/2 106/4/2 63/4/2
f 66/4/5 104/4/5 110/4/5 109/4/5
f 68/6/4 111/6/4 112/6/4 69/6/4
f 111/6/1 113/6/1 114/6/1 112/6/1
f 111/6/6 68/6/6 73/6/6 113/6/6
f 69/6/4 112/6/4 115/6/4 74/6/4
f 112/6/1 114/6/1 116/6/1 115/6/1
f 74/6/5 115/6/5 116/6/5 77/6/5
f 113/6/1 117/6/1 118/6/1 114/6/1
f 113/6/6 73/6/6 80/6/6 117/6/6
f 114/6/1 118/6/1 119/6/1 116/6/1
f 77/6/5 116/6/5 119/6/5 82/6/5
f 117/6/1 120/6/1 121/6/1 118/6/1
f 117/6/6 80/6/6 85/6/6 120/6/6
f 118/6/1 121/6/1 122/6/1 119/6/1
f 82/6/5 119/6/5 122/6/5 87/6/5
f 120/6/1 123/6/1 124/6/1 121/6/1
f 120/6/6 85/6/6 90/6/6 123/6/6
f 121/6/1 124/6/1 125/6/1 122/6/1
f 87/6/5 122/6/5 125/6/5 92/6/5
f 123/4/6 90/4/6 93/4/6 126/4/6
f 92/4/5 125/4/5 127/4/5 94/4/5
f 126/11/6 93/11/6 95/11/6 128/11/6
f 94/11/5 127/11/5 129/11/5 96/11/5
f 128/11/6 95/11/6 97/11/6 130/11/6
f 96/11/5 129/11/5 131/11/5 98/11/5
f 130/11/6 97/11/6 99/11/6 132/11/6
f 98/11/5 131/11/5 133/11/5 100/11/5
f 132/11/6 99/11/6 101/11/6 134/11/6
f 100/11/5 133/11/5 135/11/5 102/11/5
f 134/11/6 101/11/6 103/11/6 136/11/6
f 102/11/5 135/11/5 137/11/5 104/11/5
f 108/4/3 107/4/3 138/4/3 139/4/3
f 136/4/6 103/4/6 108/4/6 139/4/6
f 107/4/3 110/4/3 140/4/3 138/4/3
f 104/4/5 137/4/5 140/4/5 110/4/5
f 123/4/4 141/4/4 142/4/4 124/4/4
f 141/4/1 143/4/1 144/4/1 142/4/1
f 141/4/6 123/4/6 126/4/6 143/4/6
f 124/4/4 142/4/4 145/4/4 125/4/4
f 142/4/1 144/4/1 146/4/1 145/4/1
f 125/4/5 145/4/5 146/4/5 127/4/5
f 143/4/6 126/4/6 128/4/6 147/4/6
f 127/4/5 146/4/5 148/4/5 129/4/5
f 147/11/6 128/11/6 130/11/6 149/11/6
f 129/11/5 148/11/5 150/11/5 131/11/5
f 149/11/6 130/11/6 132/11/6 151/11/6
f 131/11/5 150/11/5 152/11/5 133/11/5
f 151/11/6 132/11/6 134/11/6 153/11/6
f 133/11/5 152/11/5 154/11/5 135/11/5
f 153/4/6 134/4/6 136/4/6 155/4/6
f 135/4/5 154/4/5 156/4/5 137/4/5
f 139/4/3 138/4/3 157/4/3 158/4/3
f 155/4/1 158/4/1 157/4/1 159/4/1
f 155/4/6 136/4/6 139/4/6 158/4/6
f 138/4/3 140/4/3 160/4/3 157/4/3
f 159/4/1 157/4/1 160/4/1 156/4/1
f 137/4/5 156/4/5 160/4/5 140/4/5
f 143/4/4 161/4/4 162/4/4 144/4/4
f 161/4/1 163/4/1 164/4/1 162/4/1
f 161/4/6 143/4/6 147/4/6 163/4/6
f 144/4/4 162/4/4 165/4/4 146/4/4
f 162/4/1 164/4/1 166/4/1 165/4/1
f 146/4/5 165/4/5 166/4/5 148/4/5
f 163/4/6 147/4/6 149/4/6 167/4/6
f 148/4/5 166/4/5 168/4/5 150/4/5
f 167/11/6 149/11/6 151/11/6 169/11/6
f 150/11/5 168/11/5 170/11/5 152/11/5
f 169/4/6 151/4/6 153/4/6 171/4/6
f 152/4/5 170/4/5 172/4/5 154/4/5
f 155/4/3 159/4/3 173/4/3 174/4/3
f 171/4/1 174/4/1 173/4/1 175/4/1
f 171/4/6 153/4/6 155/4/6 174/4/6
f 159/4/3 156/4/3 176/4/3 173/4/3
f 175/4/1 173/4/1 176/4/1 172/4/1
f 154/4/5 172/4/5 176/4/5 156/4/5
f 163/4/4 177/4/4 178/4/4 164/4/4
f 177/4/1 179/4/1 180/4/1 178/4/1
f 177/4/6 163/4/6 167/4/6 179/4/6
f 164/4/4 178/4/4 181/4/4 166/4/4
f 178/4/1 180/4/1 182/4/1 181/4/1
f 166/4/5 181/4/5 182/4/5 168/4/5
f 179/4/1 183/4/1 184/4/1 180/4/1
f 179/4/6 167/4/6 169/4/6 183/4/6
f 180/4/1 184/4/1 185/4/1 182/4/1
f 168/4/5 182/4/5 185/4/5 170/4/5
f 171/4/3 175/4/3 186/4/3 187/4/3
f 183/4/1 187/4/1 186/4/1 184/4/1
f 183/4/6 169/4/6 171/4/6 187/4/6
f 175/4/3 172/4/3 188/4/3 186/4/3
f 184/4/1 186/4/1 188/4/1 185/4/1
f 170/4/5 185/4/5 188/4/5 172/4/5
f 189/8/3 190/8/3 191/8/3 192/8/3
f 193/8/4 194/8/4 195/8/4 196/8/4
f 196/8/2 190/8/2 189/8/2 193/8/2
f 196/8/5 195/8/5 191/8/5 190/8/5
f 194/8/6 193/8/6 189/8/6 192/8/6
f 197/8/4 198/8/4 199/8/4 200/8/4
f 198/8/1 201/8/1 202/8/1 199/8/1
f 200/8/2 195/8/2 194/8/2 197/8/2
f 200/8/5 199/8/5 202/8/5 195/8/5
f 198/8/6 197/8/6 194/8/6 201/8/6
f 195/8/5 202/8/5 203/8/5 191/8/5
f 201/8/6 194/8/6 192/8/6 204/8/6
f 205/8/3 206/8/3 207/8/3 208/8/3
f 204/8/1 208/8/1 207/8/1 203/8/1
f 191/8/2 206/8/2 205/8/2 192/8/2
f 191/8/5 203/8/5 207/8/5 206/8/5
f 204/8/6 192/8/6 205/8/6 208/8/6
f 204/8/3 203/8/3 209/8/3 210/8/3
f 201/8/4 211/8/4 212/8/4 202/8/4
f 211/8/1 210/8/1 209/8/1 212/8/1
f 202/8/5 212/8/5 209/8/5 203/8/5
f 211/8/6 201/8/6 204/8/6 210/8/6
