# voxel prop — generated by tools/voxel/generate_props.py
mtllib item.mtl
o item
v -0.2 -0.275 -0.05
v -0.15 -0.275 -0.05
v -0.15 -0.275 0.0
v -0.2 -0.275 0.0
v -0.2 -0.225 0.0
v -0.2 -0.225 -0.05
v -0.15 -0.225 -0.05
v -0.15 -0.275 0.05
v -0.2 -0.275 0.05
v -0.2 -0.225 0.05
v -0.15 -0.225 0.05
v -0.2 -0.175 -0.05
v -0.2 -0.175 0.0
v -0.15 -0.175 0.0
v -0.15 -0.175 -0.05
v -0.2 -0.175 0.05
v -0.15 -0.175 0.05
v -0.2 0.125 -0.05
v -0.2 0.125 0.0
v -0.15 0.125 0.0
v -0.15 0.125 -0.05
v -0.2 0.075 -0.05
v -0.15 0.075 -0.05
v -0.15 0.075 0.0
v -0.2 0.075 0.0
v -0.2 0.125 0.05
v -0.15 0.125 0.05
v -0.15 0.075 0.05
v -0.2 0.075 0.05
v -0.1 -0.275 -0.05
v -0.1 -0.275 0.0
v -0.1 -0.225 -0.05
v -0.1 -0.225 0.0
v -0.1 -0.275 0.05
v -0.1 -0.225 0.05
v -0.1 -0.175 -0.05
v -0.1 -0.175 0.05
v -0.15 -0.125 0.0
v -0.15 -0.125 -0.05
v -0.1 -0.125 -0.05
v -0.15 -0.125 0.05
v -0.1 -0.125 0.05
v -0.15 -0.075 -0.05
v -0.15 -0.075 0.0
v -0.1 -0.075 0.0
v -0.1 -0.075 -0.05
v -0.15 -0.075 0.05
v -0.1 -0.075 0.05
v -0.1 0.075 -0.05
v -0.1 0.075 0.0
v -0.1 0.125 -0.05
v -0.1 0.075 0.05
v -0.1 0.125 0.05
v -0.15 0.175 -0.05
v -0.15 0.175 0.0
v -0.1 0.175 0.0
v -0.1 0.175 -0.05
v -0.15 0.175 0.05
v -0.1 0.175 0.05
v -0.05 -0.225 -0.05
v -0.05 -0.225 0.0
v -0.05 -0.175 -0.05
v -0.05 -0.175 0.0
v -0.05 -0.225 0.05
v -0.05 -0.175 0.05
v -0.05 -0.125 -0.05
v -0.05 -0.125 0.05
v -0.05 -0.075 -0.05
v -0.05 -0.075 0.05
v -0.1 -0.025 -0.05
v -0.1 -0.025 0.0
v -0.05 -0.025 0.0
v -0.05 -0.025 -0.05
v -0.1 -0.025 0.05
v -0.05 -0.025 0.05
v -0.1 0.025 -0.05
v -0.05 0.025 -0.05
v -0.05 0.025 0.0
v -0.1 0.025 0.0
v -0.05 0.075 -0.05
v -0.05 0.025 0.05
v -0.1 0.025 0.05
v -0.05 0.075 0.05
v -0.05 0.125 -0.05
v -0.05 0.125 0.05
v -0.05 0.175 -0.05
v -0.05 0.175 0.05
v -0.1 0.225 -0.05
v -0.1 0.225 0.0
v -0.05 0.225 0.0
v -0.05 0.225 -0.05
v -0.1 0.225 0.05
v -0.05 0.225 0.05
v 0.0 -0.175 -0.05
v 0.0 -0.175 0.0
v 0.0 -0.125 -0.05
v 0.0 -0.125 0.0
v 0.0 -0.175 0.05
v 0.0 -0.125 0.05
v 0.0 -0.075 -0.05
v 0.0 -0.075 0.05
v 0.0 -0.025 -0.05
v 0.0 -0.025 0.05
v 0.0 0.025 -0.05
v 0.0 0.025 0.05
v 0.0 0.075 -0.05
v 0.0 0.075 0.05
v 0.0 0.125 -0.05
v 0.0 0.125 0.05
v 0.0 0.175 -0.05
v 0.0 0.175 0.05
v 0.0 0.225 -0.05
v 0.0 0.225 0.05
v -0.05 0.275 -0.05
v -0.05 0.275 0.0
v 0.0 0.275 0.0
v 0.0 0.275 -0.05
v -0.05 0.275 0.05
v 0.0 0.275 0.05
v 0.05 -0.125 -0.05
v 0.05 -0.125 0.0
v 0.05 -0.075 -0.05
v 0.05 -0.075 0.0
v 0.05 -0.125 0.05
v 0.05 -0.075 0.05
v 0.05 -0.025 -0.05
v 0.05 -0.025 0.05
v 0.05 0.025 -0.05
v 0.05 0.025 0.05
v 0.05 0.075 -0.05
v 0.05 0.075 0.05
v 0.05 0.125 -0.05
v 0.05 0.125 0.05
v 0.05 0.175 -0.05
v 0.05 0.175 0.0
v 0.05 0.125 0.0
v 0.05 0.175 0.05
v 0.05 0.225 -0.05
v 0.05 0.225 0.05
v 0.05 0.275 0.0
v 0.05 0.275 -0.05
v 0.05 0.275 0.05
v 0.1 -0.075 -0.05
v 0.1 -0.075 0.0
v 0.1 -0.025 -0.05
v 0.1 -0.025 0.0
v 0.1 -0.075 0.05
v 0.1 -0.025 0.05
v 0.1 0.025 -0.05
v 0.1 0.025 0.05
v 0.1 0.075 -0.05
v 0.1 0.075 0.05
v 0.1 0.125 0.0
v 0.1 0.125 -0.05
v 0.1 0.075 0.0
v 0.1 0.125 0.05
v 0.1 0.175 -0.05
v 0.1 0.175 0.0
v 0.1 0.225 -0.05
v 0.1 0.225 0.0
v 0.1 0.175 0.05
v 0.1 0.225 0.05
v 0.1 0.275 0.0
v 0.1 0.275 -0.05
v 0.1 0.275 0.05
v 0.15 -0.025 -0.05
v 0.15 -0.025 0.0
v 0.15 0.025 -0.05
v 0.15 0.025 0.0
v 0.15 -0.025 0.05
v 0.15 0.025 0.05
v 0.15 0.075 0.0
v 0.15 0.075 -0.05
v 0.15 0.075 0.05
v 0.15 0.275 0.0
v 0.15 0.275 -0.05
v 0.15 0.225 -0.05
v 0.15 0.225 0.0
v 0.15 0.275 0.05
v 0.15 0.225 0.05
v 0.2 0.075 0.0
v 0.2 0.075 -0.05
v 0.2 0.025 -0.05
v 0.2 0.025 0.0
v 0.2 0.075 0.05
v 0.2 0.025 0.05
vt 0.12500 0.12500
vt 0.37500 0.12500
vt 0.62500 0.12500
vt 0.87500 0.12500
vt 0.12500 0.37500
vt 0.37500 0.37500
vt 0.62500 0.37500
vt 0.87500 0.37500
vt 0.12500 0.62500
vt 0.37500 0.62500
vt 0.62500 0.62500
vt 0.87500 0.62500
vt 0.12500 0.87500
vn 1 0 0
vn -1 0 0
vn 0 1 0
vn 0 -1 0
vn 0 0 1
vn 0 0 -1
usemtl voxel
f 1/3/4 2/3/4 3/3/4 4/3/4
f 4/3/2 5/3/2 6/3/2 1/3/2
f 2/3/6 1/3/6 6/3/6 7/3/6
f 4/3/4 3/3/4 8/3/4 9/3/4
f 9/3/2 10/3/2 5/3/2 4/3/2
f 9/3/5 8/3/5 11/3/5 10/3/5
f 12/3/3 13/3/3 14/3/3 15/3/3
f 5/3/2 13/3/2 12/3/2 6/3/2
f 7/3/6 6/3/6 12/3/6 15/3/6
f 13/3/3 16/3/3 17/3/3 14/3/3
f 10/3/2 16/3/2 13/3/2 5/3/2
f 10/3/5 11/3/5 17/3/5 16/3/5
f 18/3/3 19/3/3 20/3/3 21/3/3
f 22/3/4 23/3/4 24/3/4 25/3/4
f 25/3/2 19/3/2 18/3/2 22/3/2
f 23/3/6 22/3/6 18/3/6 21/3/6
f 19/3/3 26/3/3 27/3/3 20/3/3
f 25/3/4 24/3/4 28/3/4 29/3/4
f 29/3/2 26/3/2 19/3/2 25/3/2
f 29/3/5 28/3/5 27/3/5 26/3/5
f 2/8/4 30/8/4 31/8/4 3/8/4
f 30/8/1 32/8/1 33/8/1 31/8/1
f 30/8/6 2/8/6 7/8/6 32/8/6
f 3/8/4 31/8/4 34/8/4 8/8/4
f 31/8/1 33/8/1 35/8/1 34/8/1
f 8/8/5 34/8/5 35/8/5 11/8/5
f 32/8/6 7/8/6 15/8/6 36/8/6
f 11/8/5 35/8/5 37/8/5 17/8/5
f 14/3/2 38/3/2 39/3/2 15/3/2
f 36/3/6 15/3/6 39/3/6 40/3/6
f 17/3/2 41/3/2 38/3/2 14/3/2
f 17/3/5 37/3/5 42/3/5 41/3/5
f 43/3/3 44/3/3 45/3/3 46/3/3
f 38/3/2 44/3/2 43/3/2 39/3/2
f 40/3/6 39/3/6 43/3/6 46/3/6
f 44/3/3 47/3/3 48/3/3 45/3/3
f 41/3/2 47/3/2 44/3/2 38/3/2
f 41/3/5 42/3/5 48/3/5 47/3/5
f 23/8/4 49/8/4 50/8/4 24/8/4
f 49/8/6 23/8/6 21/8/6 51/8/6
f 24/8/4 50/8/4 52/8/4 28/8/4
f 28/8/5 52/8/5 53/8/5 27/8/5
f 54/3/3 55/3/3 56/3/3 57/3/3
f 20/3/2 55/3/2 54/3/2 21/3/2
f 51/3/6 21/3/6 54/3/6 57/3/6
f 55/3/3 58/3/3 59/3/3 56/3/3
f 27/3/2 58/3/2 55/3/2 20/3/2
f 27/3/5 53/3/5 59/3/5 58/3/5
f 32/8/4 60/8/4 61/8/4 33/8/4
f 60/8/1 62/8/1 63/8/1 61/8/1
f 60/8/6 32/8/6 36/8/6 62/8/6
f 33/8/4 61/8/4 64/8/4 35/8/4
f 61/8/1 63/8/1 65/8/1 64/8/1
f 35/8/5 64/8/5 65/8/5 37/8/5
f 62/8/6 36/8/6 40/8/6 66/8/6
f 37/8/5 65/8/5 67/8/5 42/8/5
f 66/8/6 40/8/6 46/8/6 68/8/6
f 42/8/5 67/8/5 69/8/5 48/8/5
f 70/3/3 71/3/3 72/3/3 73/3/3
f 45/3/2 71/3/2 70/3/2 46/3/2
f 68/3/6 46/3/6 70/3/6 73/3/6
f 71/3/3 74/3/3 75/3/3 72/3/3
f 48/3/2 74/3/2 71/3/2 45/3/2
f 48/3/5 69/3/5 75/3/5 74/3/5
f 76/3/4 77/3/4 78/3/4 79/3/4
f 79/3/2 50/3/2 49/3/2 76/3/2
f 77/3/6 76/3/6 49/3/6 80/3/6
f 79/3/4 78/3/4 81/3/4 82/3/4
f 82/3/2 52/3/2 50/3/2 79/3/2
f 82/3/5 81/3/5 83/3/5 52/3/5
f 80/8/6 49/8/6 51/8/6 84/8/6
f 52/8/5 83/8/5 85/8/5 53/8/5
f 84/8/6 51/8/6 57/8/6 86/8/6
f 53/8/5 85/8/5 87/8/5 59/8/5
f 88/3/3 89/3/3 90/3/3 91/3/3
f 56/3/2 89/3/2 88/3/2 57/3/2
f 86/3/6 57/3/6 88/3/6 91/3/6
f 89/3/3 92/3/3 93/3/3 90/3/3
f 59/3/2 92/3/2 89/3/2 56/3/2
f 59/3/5 87/3/5 93/3/5 92/3/5
f 62/8/4 94/8/4 95/8/4 63/8/4
f 94/8/1 96/8/1 97/8/1 95/8/1
f 94/8/6 62/8/6 66/8/6 96/8/6
f 63/8/4 95/8/4 98/8/4 65/8/4
f 95/8/1 97/8/1 99/8/1 98/8/1
f 65/8/5 98/8/5 99/8/5 67/8/5
f 96/8/6 66/8/6 68/8/6 100/8/6
f 67/8/5 99/8/5 101/8/5 69/8/5
f 100/8/6 68/8/6 73/8/6 102/8/6
f 69/8/5 101/8/5 103/8/5 75/8/5
f 72/3/2 78/3/2 77/3/2 73/3/2
f 102/3/6 73/3/6 77/3/6 104/3/6
f 75/3/2 81/3/2 78/3/2 72/3/2
f 75/3/5 103/3/5 105/3/5 81/3/5
f 104/8/6 77/8/6 80/8/6 106/8/6
f 81/8/5 105/8/5 107/8/5 83/8/5
f 106/8/6 80/8/6 84/8/6 108/8/6
f 83/8/5 107/8/5 109/8/5 85/8/5
f 108/8/6 84/8/6 86/8/6 110/8/6
f 85/8/5 109/8/5 111/8/5 87/8/5
f 110/8/6 86/8/6 91/8/6 112/8/6
f 87/8/5 111/8/5 113/8/5 93/8/5
f 114/3/3 115/3/3 116/3/3 117/3/3
f 90/3/2 115/3/2 114/3/2 91/3/2
f 112/3/6 91/3/6 114/3/6 117/3/6
f 115/3/3 118/3/3 119/3/3 116/3/3
f 93/3/2 118/3/2 115/3/2 90/3/2
f 93/3/5 113/3/5 119/3/5 118/3/5
f 96/8/4 120/8/4 121/8/4 97/8/4
f 120/8/1 122/8/1 123/8/1 121/8/1
f 120/8/6 96/8/6 100/8/6 122/8/6
f 97/8/4 121/8/4 124/8/4 99/8/4
f 121/8/1 123/8/1 125/8/1 124/8/1
f 99/8/5 124/8/5 125/8/5 101/8/5
f 122/8/6 100/8/6 102/8/6 126/8/6
f 101/8/5 125/8/5 127/8/5 103/8/5
f 126/8/6 102/8/6 104/8/6 128/8/6
f 103/8/5 127/8/5 129/8/5 105/8/5
f 128/8/6 104/8/6 106/8/6 130/8/6
f 105/8/5 129/8/5 131/8/5 107/8/5
f 130/8/6 106/8/6 108/8/6 132/8/6
f 107/8/5 131/8/5 133/8/5 109/8/5
f 132/8/1 134/8/1 135/8/1 136/8/1
f 132/8/6 108/8/6 110/8/6 134/8/6
f 136/8/1 135/8/1 137/8/1 133/8/1
f 109/8/5 133/8/5 137/8/5 111/8/5
f 134/8/6 110/8/6 112/8/6 138/8/6
f 111/8/5 137/8/5 139/8/5 113/8/5
f 117/8/3 116/8/3 140/8/3 141/8/3
f 138/8/6 112/8/6 117/8/6 141/8/6
f 116/8/3 119/8/3 142/8/3 140/8/3
f 113/8/5 139/8/5 142/8/5 119/8/5
f 122/8/4 143/8/4 144/8/4 123/8/4
f 143/8/1 145/8/1 146/8/1 144/8/1
f 143/8/6 122/8/6 126/8/6 145/8/6
f 123/8/4 144/8/4 147/8/4 125/8/4
f 144/8/1 146/8/1 148/8/1 147/8/1
f 125/8/5 147/8/5 148/8/5 127/8/5
f 145/8/6 126/8/6 128/8/6 149/8/6
f 127/8/5 148/8/5 150/8/5 129/8/5
f 149/8/6 128/8/6 130/8/6 151/8/6
f 129/8/5 150/8/5 152/8/5 131/8/5
f 132/8/3 136/8/3 153/8/3 154/8/3
f 151/8/1 154/8/1 153/8/1 155/8/1
f 151/8/6 130/8/6 132/8/6 154/8/6
f 136/8/3 133/8/3 156/8/3 153/8/3
f 155/8/1 153/8/1 156/8/1 152/8/1
f 131/8/5 152/8/5 156/8/5 133/8/5
f 134/8/4 157/8/4 158/8/4 135/8/4
f 157/8/1 159/8/1 160/8/1 158/8/1
f 157/8/6 134/8/6 138/8/6 159/8/6
f 135/8/4 158/8/4 161/8/4 137/8/4
f 158/8/1 160/8/1 162/8/1 161/8/1
f 137/8/5 161/8/5 162/8/5 139/8/5
f 141/8/3 140/8/3 163/8/3 164/8/3
f 159/8/6 138/8/6 141/8/6 164/8/6
f 140/8/3 142/8/3 165/8/3 163/8/3
f 139/8/5 162/8/5 165/8/5 142/8/5
f 145/8/4 166/8/4 167/8/4 146/8/4
f 166/8/1 168/8/1 169/8/1 167/8/1
f 166/8/6 145/8/6 149/8/6 168/8/6
f 146/8/4 167/8/4 170/8/4 148/8/4
f 167/8/1 169/8/1 171/8/1 170/8/1
f 148/8/5 170/8/5 171/8/5 150/8/5
f 151/8/3 155/8/3 172/8/3 173/8/3
f 168/8/6 149/8/6 151/8/6 173/8/6
f 155/8/3 152/8/3 174/8/3 172/8/3
f 150/8/5 171/8/5 174/8/5 152/8/5
f 164/8/3 163/8/3 175/8/3 176/8/3
f 159/8/4 177/8/4 178/8/4 160/8/4
f 177/8/1 176/8/1 175/8/1 178/8/1
f 177/8/6 159/8/6 164/8/6 176/8/6
f 163/8/3 165/8/3 179/8/3 175/8/3
f 160/8/4 178/8/4 180/8/4 162/8/4
f 178/8/1 175/8/1 179/8/1 180/8/1
f 162/8/5 180/8/5 179/8/5 165/8/5
f 173/8/3 172/8/3 181/8/3 182/8/3
f 168/8/4 183/8/4 184/8/4 169/8/4
f 183/8/1 182/8/1 181/8/1 184/8/1
f 183/8/6 168/8/6 173/8/6 182/8/6
f 172/8/3 174/8/3 185/8/3 181/8/3
f 169/8/4 184/8/4 186/8/4 171/8/4
f 184/8/1 181/8/1 185/8/1 186/8/1
f 171/8/5 186/8/5 185/8/5 174/8/5
