# voxel bunker arena — generated by tools/voxel/generate_arena.py
mtllib sign.mtl
o sign
v -10.45 5.4 -4.0
v -9.95 5.4 -4.0
v -9.95 5.4 -3.5
v -10.45 5.4 -3.5
v -9.95 5.9 -4.0
v -9.95 5.9 -3.5
v -10.45 5.9 -3.5
v -10.45 5.9 -4.0
v -10.45 5.9 -3.0
v -9.95 5.9 -3.0
v -9.95 5.4 -3.0
v -10.45 5.4 -3.0
v -9.95 5.4 -2.5
v -10.45 5.4 -2.5
v -9.95 5.9 -2.5
v -10.45 5.9 -2.5
v -10.45 5.4 -2.0
v -9.95 5.4 -2.0
v -9.95 5.4 -1.5
v -10.45 5.4 -1.5
v -9.95 5.9 -2.0
v -9.95 5.9 -1.5
v -10.45 5.9 -1.5
v -10.45 5.9 -2.0
v -10.45 5.4 -1.0
v -9.95 5.4 -1.0
v -9.95 5.4 -0.5
v -10.45 5.4 -0.5
v -9.95 5.9 -1.0
v -9.95 5.9 -0.5
v -10.45 5.9 -0.5
v -10.45 5.9 -1.0
v -10.45 5.4 0.0
v -9.95 5.4 0.0
v -9.95 5.4 0.5
v -10.45 5.4 0.5
v -9.95 5.9 0.0
v -9.95 5.9 0.5
v -10.45 5.9 0.5
v -10.45 5.9 0.0
v -10.45 5.9 1.0
v -9.95 5.9 1.0
v -9.95 5.4 1.0
v -10.45 5.4 1.0
v -9.95 5.4 1.5
v -10.45 5.4 1.5
v -9.95 5.9 1.5
v -10.45 5.9 1.5
v -10.45 5.4 3.0
v -9.95 5.4 3.0
v -9.95 5.4 3.5
v -10.45 5.4 3.5
v -9.95 5.9 3.0
v -9.95 5.9 3.5
v -10.45 5.9 3.5
v -10.45 5.9 3.0
v -9.95 6.4 -4.0
v -9.95 6.4 -3.5
v -10.45 6.4 -3.5
v -10.45 6.4 -4.0
v -9.95 6.4 -3.0
v -9.95 6.4 -2.5
v -10.45 6.4 -2.5
v -10.45 6.4 -3.0
v -9.95 6.4 -2.0
v -9.95 6.4 -1.5
v -10.45 6.4 -1.5
v -10.45 6.4 -2.0
v -9.95 6.4 -1.0
v -10.45 6.4 -1.0
v -9.95 6.4 -0.5
v -10.45 6.4 -0.5
v -9.95 6.4 0.0
v -9.95 6.4 0.5
v -10.45 6.4 0.5
v -10.45 6.4 0.0
v -9.95 6.4 1.0
v -9.95 6.4 1.5
v -10.45 6.4 1.5
v -10.45 6.4 1.0
v -9.95 6.4 3.0
v -9.95 6.4 3.5
v -10.45 6.4 3.5
v -10.45 6.4 3.0
v -10.45 6.9 -4.0
v -10.45 6.9 -3.5
v -9.95 6.9 -3.5
v -9.95 6.9 -4.0
v -9.95 6.9 -3.0
v -9.95 6.9 -2.5
v -10.45 6.9 -2.5
v -10.45 6.9 -3.0
v -9.95 6.9 -2.0
v -9.95 6.9 -1.5
v -10.45 6.9 -1.5
v -10.45 6.9 -2.0
v -9.95 6.9 -1.0
v -10.45 6.9 -1.0
v -9.95 6.9 -0.5
v -10.45 6.9 -0.5
v -9.95 6.9 0.0
v -9.95 6.9 0.5
v -10.45 6.9 0.5
v -10.45 6.9 0.0
v -9.95 6.9 1.0
v -9.95 6.9 1.5
v -10.45 6.9 1.5
v -10.45 6.9 1.0
v -10.45 6.4 2.0
v -9.95 6.4 2.0
v -9.95 6.4 2.5
v -10.45 6.4 2.5
v -9.95 6.9 2.0
v -9.95 6.9 2.5
v -10.45 6.9 2.5
v -10.45 6.9 2.0
v -10.45 6.9 3.0
v -9.95 6.9 3.0
v -9.95 6.9 3.5
v -10.45 6.9 3.5
v -9.95 7.4 -3.0
v -9.95 7.4 -2.5
v -10.45 7.4 -2.5
v -10.45 7.4 -3.0
v -9.95 7.4 -2.0
v -9.95 7.4 -1.5
v -10.45 7.4 -1.5
v -10.45 7.4 -2.0
v -10.45 7.4 -1.0
v -9.95 7.4 -1.0
v -9.95 7.4 -0.5
v -10.45 7.4 -0.5
v -9.95 7.4 0.0
v -9.95 7.4 0.5
v -10.45 7.4 0.5
v -10.45 7.4 0.0
v -9.95 7.4 1.0
v -9.95 7.4 1.5
v -10.45 7.4 1.5
v -10.45 7.4 1.0
v -9.95 7.4 2.0
v -9.95 7.4 2.5
v -10.45 7.4 2.5
v -10.45 7.4 2.0
v -9.95 7.4 3.0
v -9.95 7.4 3.5
v -10.45 7.4 3.5
v -10.45 7.4 3.0
v -10.45 7.9 -4.0
v -10.45 7.9 -3.5
v -9.95 7.9 -3.5
v -9.95 7.9 -4.0
v -10.45 7.4 -4.0
v -9.95 7.4 -4.0
v -9.95 7.4 -3.5
v -10.45 7.4 -3.5
v -10.45 7.9 -3.0
v -9.95 7.9 -3.0
v -10.45 7.9 -2.5
v -9.95 7.9 -2.5
v -10.45 7.9 -2.0
v -10.45 7.9 -1.5
v -9.95 7.9 -1.5
v -9.95 7.9 -2.0
v -10.45 7.9 -1.0
v -10.45 7.9 -0.5
v -9.95 7.9 -0.5
v -9.95 7.9 -1.0
v -10.45 7.9 0.0
v -10.45 7.9 0.5
v -9.95 7.9 0.5
v -9.95 7.9 0.0
v -10.45 7.9 1.0
v -9.95 7.9 1.0
v -10.45 7.9 1.5
v -9.95 7.9 1.5
v -10.45 7.9 2.0
v -10.45 7.9 2.5
v -9.95 7.9 2.5
v -9.95 7.9 2.0
v -10.45 7.9 3.0
v -9.95 7.9 3.0
v -10.45 7.9 3.5
v -9.95 7.9 3.5
vt 0.12500 0.12500
vt 0.37500 0.12500
vt 0.62500 0.12500
vt 0.87500 0.12500
vt 0.12500 0.37500
vt 0.37500 0.37500
vt 0.62500 0.37500
vt 0.87500 0.37500
vt 0.12500 0.62500
vt 0.37500 0.62500
vt 0.62500 0.62500
vt 0.87500 0.62500
vt 0.12500 0.87500
vn 1 0 0
vn -1 0 0
vn 0 1 0
vn 0 -1 0
vn 0 0 1
vn 0 0 -1
usemtl voxel
f 1/12/4 2/12/4 3/12/4 4/12/4
f 2/12/1 5/12/1 6/12/1 3/12/1
f 4/12/2 7/12/2 8/12/2 1/12/2
f 2/12/6 1/12/6 8/12/6 5/12/6
f 7/12/3 9/12/3 10/12/3 6/12/3
f 4/12/4 3/12/4 11/12/4 12/12/4
f 3/12/1 6/12/1 10/12/1 11/12/1
f 12/12/2 9/12/2 7/12/2 4/12/2
f 12/11/4 11/11/4 13/11/4 14/11/4
f 11/11/1 10/11/1 15/11/1 13/11/1
f 14/11/2 16/11/2 9/11/2 12/11/2
f 14/11/5 13/11/5 15/11/5 16/11/5
f 17/12/4 18/12/4 19/12/4 20/12/4
f 18/12/1 21/12/1 22/12/1 19/12/1
f 20/12/2 23/12/2 24/12/2 17/12/2
f 20/12/5 19/12/5 22/12/5 23/12/5
f 18/12/6 17/12/6 24/12/6 21/12/6
f 25/12/4 26/12/4 27/12/4 28/12/4
f 26/12/1 29/12/1 30/12/1 27/12/1
f 28/12/2 31/12/2 32/12/2 25/12/2
f 28/12/5 27/12/5 30/12/5 31/12/5
f 26/12/6 25/12/6 32/12/6 29/12/6
f 33/12/4 34/12/4 35/12/4 36/12/4
f 34/12/1 37/12/1 38/12/1 35/12/1
f 36/12/2 39/12/2 40/12/2 33/12/2
f 34/12/6 33/12/6 40/12/6 37/12/6
f 39/12/3 41/12/3 42/12/3 38/12/3
f 36/12/4 35/12/4 43/12/4 44/12/4
f 35/12/1 38/12/1 42/12/1 43/12/1
f 44/12/2 41/12/2 39/12/2 36/12/2
f 44/11/4 43/11/4 45/11/4 46/11/4
f 43/11/1 42/11/1 47/11/1 45/11/1
f 46/11/2 48/11/2 41/11/2 44/11/2
f 46/11/5 45/11/5 47/11/5 48/11/5
f 49/11/4 50/11/4 51/11/4 52/11/4
f 50/11/1 53/11/1 54/11/1 51/11/1
f 52/11/2 55/11/2 56/11/2 49/11/2
f 52/11/5 51/11/5 54/11/5 55/11/5
f 50/11/6 49/11/6 56/11/6 53/11/6
f 5/12/1 57/12/1 58/12/1 6/12/1
f 7/12/2 59/12/2 60/12/2 8/12/2
f 7/12/5 6/12/5 58/12/5 59/12/5
f 5/12/6 8/12/6 60/12/6 57/12/6
f 10/12/1 61/12/1 62/12/1 15/12/1
f 16/12/2 63/12/2 64/12/2 9/12/2
f 16/12/5 15/12/5 62/12/5 63/12/5
f 10/12/6 9/12/6 64/12/6 61/12/6
f 21/12/1 65/12/1 66/12/1 22/12/1
f 23/12/2 67/12/2 68/12/2 24/12/2
f 21/12/6 24/12/6 68/12/6 65/12/6
f 23/11/4 22/11/4 29/11/4 32/11/4
f 22/11/1 66/11/1 69/11/1 29/11/1
f 32/11/2 70/11/2 67/11/2 23/11/2
f 29/12/1 69/12/1 71/12/1 30/12/1
f 31/12/2 72/12/2 70/12/2 32/12/2
f 31/12/5 30/12/5 71/12/5 72/12/5
f 37/12/1 73/12/1 74/12/1 38/12/1
f 39/12/2 75/12/2 76/12/2 40/12/2
f 39/12/5 38/12/5 74/12/5 75/12/5
f 37/12/6 40/12/6 76/12/6 73/12/6
f 42/12/1 77/12/1 78/12/1 47/12/1
f 48/12/2 79/12/2 80/12/2 41/12/2
f 48/12/5 47/12/5 78/12/5 79/12/5
f 42/12/6 41/12/6 80/12/6 77/12/6
f 53/12/1 81/12/1 82/12/1 54/12/1
f 55/12/2 83/12/2 84/12/2 56/12/2
f 55/12/5 54/12/5 82/12/5 83/12/5
f 53/12/6 56/12/6 84/12/6 81/12/6
f 85/12/3 86/12/3 87/12/3 88/12/3
f 57/12/1 88/12/1 87/12/1 58/12/1
f 59/12/2 86/12/2 85/12/2 60/12/2
f 59/12/5 58/12/5 87/12/5 86/12/5
f 57/12/6 60/12/6 85/12/6 88/12/6
f 61/12/1 89/12/1 90/12/1 62/12/1
f 63/12/2 91/12/2 92/12/2 64/12/2
f 63/12/5 62/12/5 90/12/5 91/12/5
f 61/12/6 64/12/6 92/12/6 89/12/6
f 65/12/1 93/12/1 94/12/1 66/12/1
f 67/12/2 95/12/2 96/12/2 68/12/2
f 65/12/6 68/12/6 96/12/6 93/12/6
f 66/12/1 94/12/1 97/12/1 69/12/1
f 70/12/2 98/12/2 95/12/2 67/12/2
f 69/11/1 97/11/1 99/11/1 71/11/1
f 72/11/2 100/11/2 98/11/2 70/11/2
f 72/11/5 71/11/5 99/11/5 100/11/5
f 73/12/1 101/12/1 102/12/1 74/12/1
f 75/12/2 103/12/2 104/12/2 76/12/2
f 75/12/5 74/12/5 102/12/5 103/12/5
f 73/12/6 76/12/6 104/12/6 101/12/6
f 77/12/1 105/12/1 106/12/1 78/12/1
f 79/12/2 107/12/2 108/12/2 80/12/2
f 79/12/5 78/12/5 106/12/5 107/12/5
f 77/12/6 80/12/6 108/12/6 105/12/6
f 109/12/4 110/12/4 111/12/4 112/12/4
f 110/12/1 113/12/1 114/12/1 111/12/1
f 112/12/2 115/12/2 116/12/2 109/12/2
f 110/12/6 109/12/6 116/12/6 113/12/6
f 115/12/3 117/12/3 118/12/3 114/12/3
f 112/12/4 111/12/4 81/12/4 84/12/4
f 111/12/1 114/12/1 118/12/1 81/12/1
f 84/12/2 117/12/2 115/12/2 112/12/2
f 81/12/1 118/12/1 119/12/1 82/12/1
f 83/12/2 120/12/2 117/12/2 84/12/2
f 83/12/5 82/12/5 119/12/5 120/12/5
f 89/12/1 121/12/1 122/12/1 90/12/1
f 91/12/2 123/12/2 124/12/2 92/12/2
f 91/12/5 90/12/5 122/12/5 123/12/5
f 89/12/6 92/12/6 124/12/6 121/12/6
f 93/11/1 125/11/1 126/11/1 94/11/1
f 95/11/2 127/11/2 128/11/2 96/11/2
f 93/11/6 96/11/6 128/11/6 125/11/6
f 127/12/3 129/12/3 130/12/3 126/12/3
f 94/12/1 126/12/1 130/12/1 97/12/1
f 98/12/2 129/12/2 127/12/2 95/12/2
f 97/12/1 130/12/1 131/12/1 99/12/1
f 100/12/2 132/12/2 129/12/2 98/12/2
f 100/12/5 99/12/5 131/12/5 132/12/5
f 101/12/1 133/12/1 134/12/1 102/12/1
f 103/12/2 135/12/2 136/12/2 104/12/2
f 103/12/5 102/12/5 134/12/5 135/12/5
f 101/12/6 104/12/6 136/12/6 133/12/6
f 105/11/1 137/11/1 138/11/1 106/11/1
f 107/11/2 139/11/2 140/11/2 108/11/2
f 107/11/5 106/11/5 138/11/5 139/11/5
f 105/11/6 108/11/6 140/11/6 137/11/6
f 113/12/1 141/12/1 142/12/1 114/12/1
f 115/12/2 143/12/2 144/12/2 116/12/2
f 115/12/5 114/12/5 142/12/5 143/12/5
f 113/12/6 116/12/6 144/12/6 141/12/6
f 118/12/1 145/12/1 146/12/1 119/12/1
f 120/12/2 147/12/2 148/12/2 117/12/2
f 120/12/5 119/12/5 146/12/5 147/12/5
f 118/12/6 117/12/6 148/12/6 145/12/6
f 149/12/3 150/12/3 151/12/3 152/12/3
f 153/12/4 154/12/4 155/12/4 156/12/4
f 154/12/1 152/12/1 151/12/1 155/12/1
f 156/12/2 150/12/2 149/12/2 153/12/2
f 154/12/6 153/12/6 149/12/6 152/12/6
f 150/12/3 157/12/3 158/12/3 151/12/3
f 156/12/4 155/12/4 121/12/4 124/12/4
f 155/12/1 151/12/1 158/12/1 121/12/1
f 124/12/2 157/12/2 150/12/2 156/12/2
f 157/12/3 159/12/3 160/12/3 158/12/3
f 121/12/1 158/12/1 160/12/1 122/12/1
f 123/12/2 159/12/2 157/12/2 124/12/2
f 123/12/5 122/12/5 160/12/5 159/12/5
f 161/12/3 162/12/3 163/12/3 164/12/3
f 125/12/1 164/12/1 163/12/1 126/12/1
f 127/12/2 162/12/2 161/12/2 128/12/2
f 127/12/5 126/12/5 163/12/5 162/12/5
f 125/12/6 128/12/6 161/12/6 164/12/6
f 165/12/3 166/12/3 167/12/3 168/12/3
f 130/12/1 168/12/1 167/12/1 131/12/1
f 132/12/2 166/12/2 165/12/2 129/12/2
f 132/12/5 131/12/5 167/12/5 166/12/5
f 130/12/6 129/12/6 165/12/6 168/12/6
f 169/11/3 170/11/3 171/11/3 172/11/3
f 133/11/1 172/11/1 171/11/1 134/11/1
f 135/11/2 170/11/2 169/11/2 136/11/2
f 133/11/6 136/11/6 169/11/6 172/11/6
f 170/12/3 173/12/3 174/12/3 171/12/3
f 135/12/4 134/12/4 137/12/4 140/12/4
f 134/12/1 171/12/1 174/12/1 137/12/1
f 140/12/2 173/12/2 170/12/2 135/12/2
f 173/11/3 175/11/3 176/11/3 174/11/3
f 137/11/1 174/11/1 176/11/1 138/11/1
f 139/11/2 175/11/2 173/11/2 140/11/2
f 139/11/5 138/11/5 176/11/5 175/11/5
f 177/12/3 178/12/3 179/12/3 180/12/3
f 141/12/1 180/12/1 179/12/1 142/12/1
f 143/12/2 178/12/2 177/12/2 144/12/2
f 141/12/6 144/12/6 177/12/6 180/12/6
f 178/12/3 181/12/3 182/12/3 179/12/3
f 143/12/4 142/12/4 145/12/4 148/12/4
f 142/12/1 179/12/1 182/12/1 145/12/1
f 148/12/2 181/12/2 178/12/2 143/12/2
f 181/12/3 183/12/3 184/12/3 182/12/3
f 145/12/1 182/12/1 184/12/1 146/12/1
f 147/12/2 183/12/2 181/12/2 148/12/2
f 147/12/5 146/12/5 184/12/5 183/12/5
